<svg xmlns="http://www.w3.org/2000/svg" width="216" height="48" viewBox="0 0 216 48"><defs><clipPath id="j4nca"><path d="M202.41 10.12h13.054v30.484H202.41z"/></clipPath><clipPath id="j4ncb"><path d="M0 30.23h37.062v17.768H0z"/></clipPath><clipPath id="j4ncc"><path d="M9.93.57h15.824v12.677H9.93z"/></clipPath></defs><g><g><g opacity="-1"><path fill="#13110e" d="M52.62 31.825V9.6h4.74v22.99c0 1.827 1.01 2.932 2.854 2.932 1.8 0 2.852-1.105 2.852-2.932V9.6h4.785v22.225c0 5.354-2.897 7.946-7.637 7.946s-7.594-2.592-7.594-7.946"/></g><g opacity="-1"><path fill="#13110e" d="M72 9.6h6.63c4.506 0 7.216 2.586 7.216 8.017v3.491c0 5.344-2.71 8.017-7.215 8.017h-2.127V39.77H72zm6.756 15.172c1.71 0 2.586-.992 2.586-2.888v-5c0-1.94-.876-2.93-2.586-2.93h-2.293v10.818z"/></g><g opacity="-1"><path fill="#13110e" d="M91.38 9.6h6.631c4.505 0 7.215 2.586 7.215 8.017v3.491c0 5.344-2.71 8.017-7.215 8.017h-2.127V39.77H91.38zm6.756 15.172c1.71 0 2.586-.992 2.586-2.888v-5c0-1.94-.876-2.93-2.586-2.93h-2.294v10.818z"/></g><g opacity="-1"><path fill="#13110e" d="M109.38 9.6h12.462v4.353h-7.946v8.491h6.775v4.31h-6.775v8.664h7.946v4.353H109.38z"/></g><g opacity="-1"><path fill="#13110e" d="M127.38 9.6h6.756c4.504 0 7.09 2.586 7.09 8.017v2.758c0 3.88-1.335 6.077-3.879 7.112l3.796 12.284h-4.547l-3.252-11.637h-1.46V39.77h-4.504zm6.793 14.611c1.706 0 2.539-1.034 2.539-2.93v-4.397c0-1.94-.833-2.93-2.539-2.93h-2.248V24.21z"/></g><g opacity="-1"><path fill="#13110e" d="M144 32.994V17.748c0-5.432 2.872-8.148 7.44-8.148 4.701 0 7.53 2.629 7.53 8.105v2.181h-4.743V16.96c0-1.884-.828-2.98-2.742-2.98-1.828 0-2.785 1.096-2.785 2.98v16.823c0 1.883 1.044 2.979 2.915 2.979 1.915 0 2.872-1.052 2.872-2.936v-3.312h4.744v2.524c0 5.476-3.003 8.105-7.66 8.105-4.612 0-7.571-2.673-7.571-8.149"/></g><g opacity="-1"><path fill="#13110e" d="M163.38 17.589c0-5.355 2.86-7.989 7.57-7.989 4.71 0 7.66 2.634 7.66 7.989V39.77h-4.798v-9.885h-5.678v9.885h-4.754zm10.429 8.058V16.91c0-1.828-1.055-2.977-2.859-2.977-1.714 0-2.813 1.149-2.813 2.977v8.736z"/></g><g opacity="-1"><path fill="#13110e" d="M182.77 33.038v-2.54h4.796v3.328c0 1.884.844 2.98 2.797 2.98 2.22 0 2.842-1.49 2.842-3.68v-1.183c0-2.716-1.021-3.636-3.153-4.512l-1.82-.745c-3.464-1.358-5.373-3.505-5.373-7.799v-1.095c0-5.563 2.752-8.192 7.549-8.192 4.751 0 7.46 2.54 7.46 8.105v2.19h-4.84v-3.023c0-1.884-.755-2.891-2.665-2.891-2.042 0-2.753 1.139-2.753 3.33v1.532c0 2.191.666 3.024 3.197 3.988l1.776.7c3.775 1.446 5.418 3.856 5.418 8.061v.965c0 6.046-2.887 8.586-7.682 8.586-4.751 0-7.549-2.673-7.549-8.105"/></g><g opacity="-1"><g/><g clip-path="url(#j4nca)"><path fill="#13110e" d="M202.41 10.12h13.054v4.398h-8.323v8.58h7.097v4.354h-7.097v8.753h8.323v4.399H202.41z"/></g></g><g opacity="-1"><g/><g clip-path="url(#j4ncb)"><path fill="#13110e" d="M0 30.23l21.178 11.845 15.884-8.884v5.923l-15.883 8.884L0 36.152z"/></g></g><g opacity="-1"><path fill="#13110e" d="M9.69 31.09l11.077-6.4-.002 6.4-5.537 3.2z"/></g><g opacity="-1"><path fill="#13110e" d="M0 6.86l21.362 11.886L37.383 9.83l.002 5.943-16.023 8.915L0 12.803z"/></g><g opacity="-1"><g/><g clip-path="url(#j4ncc)"><path fill="#13110e" d="M9.93.57l15.824 9.508-5.276 3.17-10.547-6.34z"/></g></g></g></g></svg>