<svg id="Layer_1" data-name="Layer 1" xmlns="http://www.w3.org/2000/svg" viewBox="0 0 212 48"><defs><style>.cls-1{fill:#13100d;}</style></defs><path class="cls-1" d="M51.24,31.68V9.26h4.62V32.45c0,1.84,1,3,2.78,3a2.64,2.64,0,0,0,2.78-3V9.26h4.67V31.68c0,5.4-2.83,8-7.45,8S51.24,37.08,51.24,31.68Z"/><path class="cls-1" d="M71,9.26h6.81c4.62,0,7.4,2.57,7.4,8v3.48c0,5.31-2.78,8-7.4,8H75.59V39.26H71ZM77.9,24.35c1.76,0,2.66-1,2.66-2.87v-5c0-1.93-.9-2.92-2.66-2.92H75.55V24.35Z"/><path class="cls-1" d="M89,9.26h6.8c4.63,0,7.41,2.57,7.41,8v3.48c0,5.31-2.78,8-7.41,8H93.65V39.26H89ZM96,24.35c1.76,0,2.66-1,2.66-2.87v-5c0-1.93-.9-2.92-2.66-2.92H93.61V24.35Z"/><path class="cls-1" d="M107.05,9.26H119.8v4.33h-8.13V22h6.94v4.29h-6.94v8.62h8.13v4.32H107.05Z"/><path class="cls-1" d="M124.47,9.26h6.93c4.63,0,7.28,2.57,7.28,8V20c0,3.85-1.37,6-4,7.07l3.9,12.21h-4.67l-3.34-11.57h-1.5V39.26h-4.62Zm7,14.53c1.75,0,2.61-1,2.61-2.91V16.51c0-1.93-.86-2.92-2.61-2.92h-2.31v10.2Z"/><path class="cls-1" d="M142.41,31.72V16.81c0-5.32,2.82-8,7.32-8s7.4,2.58,7.4,7.93V18.9h-4.67V16c0-1.84-.81-2.91-2.69-2.91S147,14.19,147,16V32.49a2.63,2.63,0,0,0,2.87,2.92,2.54,2.54,0,0,0,2.82-2.87V29.29h4.67v2.47c0,5.36-3,7.93-7.54,7.93S142.41,37.08,142.41,31.72Z"/><path class="cls-1" d="M161.32,16.89c0-5.4,2.79-8.06,7.37-8.06s7.44,2.66,7.44,8.06V39.26h-4.66v-10H166v10h-4.63ZM171.47,25v-8.8a2.77,2.77,0,1,0-5.52,0V25Z"/><path class="cls-1" d="M180.29,31.76V29.28h4.62v3.26c0,1.84.82,2.91,2.7,2.91,2.14,0,2.74-1.46,2.74-3.6V30.69c0-2.65-1-3.56-3-4.41l-1.76-.73c-3.33-1.33-5.17-3.43-5.17-7.63V16.85c0-5.44,2.65-8,7.27-8s7.19,2.49,7.19,7.93v2.15h-4.66V16c0-1.84-.73-2.83-2.57-2.83S185,14.23,185,16.38v1.5c0,2.14.64,2.95,3.08,3.9l1.71.68c3.64,1.42,5.22,3.78,5.22,7.89v.94c0,5.92-2.78,8.4-7.4,8.4S180.29,37.08,180.29,31.76Z"/><path class="cls-1" d="M199.3,9.26h12.76v4.33h-8.14V22h6.94v4.29h-6.94v8.62h8.14v4.32H199.3Z"/><polygon class="cls-1" points="0.06 30.26 20.81 42.26 36.38 33.26 36.38 39.26 20.81 48.26 0.06 36.26 0.06 30.26"/><polygon class="cls-1" points="10.43 30.26 20.81 24.26 20.81 30.26 15.62 33.26 10.43 30.26"/><polygon class="cls-1" points="0.06 6.26 20.81 18.26 36.38 9.26 36.38 15.26 20.81 24.26 0.06 12.26 0.06 6.26"/><polygon class="cls-1" points="10.43 0.26 26 9.26 20.81 12.26 10.44 6.26 10.43 0.26"/></svg>